<svg width="70" height="70" viewBox="0 0 70 70" fill="none" xmlns="http://www.w3.org/2000/svg">
<circle cx="35" cy="35" r="35" fill="#0C1077"/>
<path fill-rule="evenodd" clip-rule="evenodd" d="M35 38.0001C33.3455 38.0001 31.9999 36.6545 31.9999 35C31.9999 33.3455 33.3455 31.9999 35 31.9999C36.6545 31.9999 38.0001 33.3455 38.0001 35C38.0001 36.6545 36.6545 38.0001 35 38.0001ZM46.9943 30.7429C46.4078 30.1564 45.4583 30.1564 44.8717 30.7429C44.2867 31.3279 44.2852 32.2789 44.8717 32.8639L45.5063 33.5H40.7886C40.2441 31.9999 38.6016 29.7559 36.5 29.2114V24.4892L37.1361 25.1253C37.7211 25.7118 38.6721 25.7118 39.2571 25.1253C39.8436 24.5402 39.8436 23.5907 39.2571 23.0042L37.1166 20.8741C35.9465 19.7086 34.0535 19.7086 32.8834 20.8741L30.7429 23.0042C30.1564 23.5907 30.1564 24.5402 30.7429 25.1253C31.3279 25.7118 32.2789 25.7118 32.8639 25.1253L33.5 24.4892V29.2114C31.3984 29.7559 29.7559 31.9999 29.2114 33.5H24.4937L25.1298 32.8639C25.7148 32.2789 25.7148 31.3279 25.1298 30.7429C24.5432 30.1564 23.5922 30.1564 23.0057 30.7429L20.8741 32.8834C19.7086 34.0535 19.7086 35.9465 20.8741 37.1166L23.0057 39.2571C23.5922 39.8436 24.5417 39.8436 25.1283 39.2571C25.7133 38.6721 25.7148 37.7211 25.1283 37.1361L24.4937 36.5H29.2114C29.7559 38.0001 31.3984 40.2441 33.5 40.7886V45.5108L32.8639 44.8747C32.2789 44.2882 31.3279 44.2882 30.7429 44.8747C30.1564 45.4598 30.1564 46.4093 30.7429 46.9958L32.8834 49.1259C34.0535 50.2914 35.9465 50.2914 37.1166 49.1259L39.2571 46.9958C39.8436 46.4093 39.8436 45.4598 39.2571 44.8747C38.6721 44.2882 37.7211 44.2882 37.1361 44.8747L36.5 45.5108V40.7886C38.6016 40.2441 40.2441 38.0001 40.7886 36.5H45.5063L44.8702 37.1361C44.2852 37.7211 44.2852 38.6721 44.8702 39.2571C45.4568 39.8436 46.4078 39.8436 46.9943 39.2571L49.1259 37.1166C50.2914 35.9465 50.2914 34.0535 49.1259 32.8834L46.9943 30.7429Z" fill="white"/>
</svg>
