<svg width="70" height="70" viewBox="0 0 70 70" fill="none" xmlns="http://www.w3.org/2000/svg">
<circle cx="35" cy="35" r="35" fill="#0C1077"/>
<path fill-rule="evenodd" clip-rule="evenodd" d="M45.963 40.2206L41.5796 37.5125C42.8801 34.7463 43.9561 30.7543 43.9202 27.0723C47.0435 30.6047 47.7813 35.9889 45.963 40.2206ZM39.0175 35.9279L37.0914 34.7387L34.5323 33.1556L32.6032 31.9649C34.438 29.5285 37.494 26.8662 40.8433 25.4602C41.177 29.1408 40.2821 33.1404 39.0175 35.9279ZM30.0426 30.3819L25.6607 27.6737C28.6209 23.8588 33.5056 22.2483 38.0148 23.4284C34.8047 25.1045 32.0929 27.5012 30.0426 30.3819ZM43.4518 22.6529C43.3515 22.5842 43.2527 22.5124 43.151 22.4452C43.0282 22.3643 42.916 22.2743 42.7918 22.1964C42.6736 22.1231 42.5493 22.0682 42.4311 21.998C42.3114 21.9293 42.1902 21.8652 42.0689 21.7995C35.1069 18.0075 26.376 20.3737 22.2365 27.3425C21.9746 27.7836 21.7397 28.234 21.5271 28.6889L24.1102 30.2857L28.4607 32.974L31.0198 34.5555L32.9818 35.7676L26.3296 45.6414C25.9016 46.362 24.9812 46.5925 24.2733 46.1559C23.567 45.7193 23.341 44.7804 23.769 44.0584L24.5442 42.7532C24.9722 42.0326 24.7477 41.0938 24.0399 40.6572C23.3335 40.2191 22.4131 40.4496 21.9851 41.1716L20.4332 43.7821C19.5771 45.2247 20.0291 47.1023 21.4433 47.9755L24.0025 49.5571C25.4167 50.4318 27.2575 49.9708 28.1135 48.5282L35.5409 37.3491L37.5029 38.5627L40.0636 40.1443L44.4126 42.8325L46.9956 44.4278C47.0375 44.4538 47.5748 43.6035 47.8367 43.1638C51.9792 36.1874 49.9858 27.1883 43.4518 22.6529Z" fill="white"/>
</svg>
