<svg width="70" height="70" viewBox="0 0 70 70" fill="none" xmlns="http://www.w3.org/2000/svg">
<circle cx="35" cy="35" r="35" fill="white"/>
<path fill-rule="evenodd" clip-rule="evenodd" d="M44 32C44 33.6575 42.6575 35 41 35C39.3425 35 38 33.6575 38 32C38 30.3425 39.3425 29 41 29C42.6575 29 44 30.3425 44 32ZM42.3365 38.234C40.8155 45.9215 29.1845 45.9215 27.6635 38.234C27.485 37.328 28.238 36.5 29.162 36.5C29.882 36.5 30.47 37.0205 30.638 37.721C31.6805 42.0935 38.3195 42.0935 39.362 37.721C39.53 37.0205 40.118 36.5 40.838 36.5C41.762 36.5 42.515 37.328 42.3365 38.234ZM29 35C27.3425 35 26 33.6575 26 32C26 30.3425 27.3425 29 29 29C30.6575 29 32 30.3425 32 32C32 33.6575 30.6575 35 29 35ZM35 47C28.3835 47 23 41.6165 23 35C23 28.3835 28.3835 23 35 23C41.6165 23 47 28.3835 47 35C47 41.6165 41.6165 47 35 47ZM35 20C26.7155 20 20 26.7155 20 35C20 43.2845 26.7155 50 35 50C43.2845 50 50 43.2845 50 35C50 26.7155 43.2845 20 35 20Z" fill="#0C1077"/>
</svg>
